<?xml version="1.0" encoding="UTF-8" standalone="no"?>
<!-- Created with Inkscape (http://www.inkscape.org/) -->

<svg
   width="103.13128mm"
   height="215.85988mm"
   viewBox="0 0 103.13128 215.85988"
   version="1.1"
   id="svg5"
   xml:space="preserve"
   sodipodi:docname="sus-25.svg"
   inkscape:version="1.2 (dc2aedaf03, 2022-05-15)"
   inkscape:export-filename="../sus-25-flame.png"
   inkscape:export-xdpi="144.95538"
   inkscape:export-ydpi="144.95538"
   xmlns:inkscape="http://www.inkscape.org/namespaces/inkscape"
   xmlns:sodipodi="http://sodipodi.sourceforge.net/DTD/sodipodi-0.dtd"
   xmlns:xlink="http://www.w3.org/1999/xlink"
   xmlns="http://www.w3.org/2000/svg"
   xmlns:svg="http://www.w3.org/2000/svg"
   xmlns:krita="http://krita.org/namespaces/svg/krita"><sodipodi:namedview
     id="namedview19"
     pagecolor="#808080"
     bordercolor="#000000"
     borderopacity="0.25"
     inkscape:showpageshadow="2"
     inkscape:pageopacity="0"
     inkscape:pagecheckerboard="true"
     inkscape:deskcolor="#d1d1d1"
     inkscape:document-units="mm"
     showgrid="false"
     inkscape:zoom="0.64986398"
     inkscape:cx="-112.3312"
     inkscape:cy="503.95161"
     inkscape:window-width="1896"
     inkscape:window-height="1027"
     inkscape:window-x="12"
     inkscape:window-y="41"
     inkscape:window-maximized="0"
     inkscape:current-layer="layer2" /><defs
     id="defs2"><linearGradient
       inkscape:collect="always"
       xlink:href="#linearGradient1355"
       id="linearGradient1567"
       gradientUnits="userSpaceOnUse"
       gradientTransform="matrix(1.4831844,0,0,2.0553818,-120.79881,-23.803445)"
       x1="126.23866"
       y1="123.93571"
       x2="126.67377"
       y2="83.472176" /><linearGradient
       inkscape:collect="always"
       id="linearGradient1355"><stop
         style="stop-color:#d64242;stop-opacity:1;"
         offset="0"
         id="stop1351" /><stop
         style="stop-color:#ead500;stop-opacity:1;"
         offset="1"
         id="stop1353" /></linearGradient><linearGradient
       inkscape:collect="always"
       xlink:href="#linearGradient1355"
       id="linearGradient272"
       gradientUnits="userSpaceOnUse"
       gradientTransform="matrix(1.4831844,0,0,2.0553818,-67.298024,-25.435668)"
       x1="126.23866"
       y1="123.93571"
       x2="126.67377"
       y2="83.472176" /></defs><g
     inkscape:groupmode="layer"
     id="layer2"
     inkscape:label="Layer 1"><path
       style="fill:url(#linearGradient1567);fill-opacity:1;stroke:#000000;stroke-width:1.27765;stroke-dasharray:none;stroke-opacity:1"
       d="m 60.796414,152.40758 c -0.340189,2.56456 -1.115039,6.01857 -2.21926,7.54708 -0.089,0.12314 -0.614259,1.06191 -0.724499,1.13595 -0.248931,0.16717 -0.664182,0 -0.931581,0 -1.39577,0 -1.989629,-0.006 -3.09191,1.51954 -0.566459,0.78411 -0.94677,2.1415 -1.105121,3.45656 -0.07779,0.64549 0.116575,1.29102 0,1.93651 0.3945,1.73466 -0.54561,1.49113 -0.746109,2.32381 -0.30863,1.2816 -0.532961,2.9326 -0.74582,4.25883 -0.157612,0.98199 -0.54732,1.49874 -0.74599,2.32356 -0.08331,0.34621 0.08331,0.81501 0,1.16122 -0.25809,1.07211 -0.95743,1.74734 -1.305189,2.7101 -0.420191,1.16328 -0.433341,2.70413 -0.55959,3.09692 -0.0773,0.24011 -0.289661,0.15641 -0.373082,0.38731 -0.142238,0.39386 -1.18852,5.85265 -1.30572,6.58268 -0.337299,2.10109 -0.591698,4.46109 -0.932638,6.58333 -0.357451,2.22488 0.260598,7.37159 0,9.8066 -0.222521,2.07919 -0.687851,4.16376 -0.932651,6.19687 -0.0566,0.46982 -0.114648,6.10215 0,6.53422 0.104111,0.39211 0.33075,0.34322 0.493151,0.67411 1.211119,2.46719 3.822949,1.54849 5.477018,1.54849 0.32375,0 0.817551,-0.20478 1.112492,0 0.653538,0.45338 1.093549,1.04351 1.656919,1.92117 0.356861,0.55592 0.90853,0.49975 1.30457,0.77377 0.325611,0.2253 0.47225,0.97179 0.745451,1.16087 0.117927,0.0816 0.25508,-0.0816 0.373038,0 0.594181,0.41122 0.986521,1.62415 1.490882,2.32222 0.53013,0.73372 1.073358,1.12965 1.678098,1.54894 0.500791,0.34721 3.455712,0.28155 3.861472,0 1.130298,-0.78431 2.295909,-1.79809 3.542778,-2.32328 1.672252,-0.70435 4.430891,0.38731 6.166192,0.38731 0.300059,0 1.4343,0.33612 1.67721,0 0.28697,-0.39709 0.443579,-1.12518 0.73167,-1.51877 0.49262,-0.673 1.158029,-1.51288 1.678779,-2.32384 0.140742,-0.21908 0.20978,-0.63897 0.373071,-0.77461 0.17317,-0.1439 0.399589,0.19924 0.55952,0 0.192193,-0.23944 0.21452,-0.83261 0.37301,-1.16165 0.06611,-0.95223 0.39599,-0.1605 0.559459,-0.38731 0.312781,-0.43371 0.58841,-1.19111 0.9305,-1.54737 0.08841,-0.092 0.428029,0.14841 0.49443,0 0.08609,-0.19248 0.08029,-0.51914 0.169706,-0.70477 0.027,-0.0562 0.89805,-0.37115 0.94361,-0.26862 0.07,0.15784 0.0915,0.48129 0.164766,0.62061 0.134838,0.25664 4.979721,-0.0873 5.083709,-0.37276 0.246291,-0.67614 0.417571,-1.47121 0.54775,-2.27467 0.0681,-0.41939 0.123257,-7.10519 0,-7.87138 -0.129775,-0.80674 -0.596698,-1.81014 -0.919989,-2.29704 -1.31339,-1.97807 -1.839719,-2.40235 -2.64825,-5.49744 -0.24964,-0.95562 -0.407761,-0.93784 -0.55926,-1.86985 -0.179628,-1.105 0.359279,0.71856 0,-1.11867 -0.117026,-0.5981 -0.461221,-0.93689 -0.559601,-1.54924 -0.0591,-0.36697 0.08349,-0.81465 0,-1.16056 -0.100114,-0.41522 -0.288509,-0.72823 -0.372728,-1.15848 -0.01619,-0.0822 -0.115673,-3.49651 -0.186515,-4.23121 -0.104419,-1.08385 0.259839,-7.20301 0,-7.92372 -0.142526,-0.39528 -0.56779,-0.39754 -0.735239,-0.62934 -0.216681,-0.29992 -0.30476,-0.97998 -0.55243,-1.14704 -0.118215,-0.0797 -0.261861,0.11551 -0.373071,0 -0.374041,-0.38833 -0.561421,-1.53547 -0.93267,-1.93654 -0.23212,-0.2508 -0.648069,0.24281 -0.88254,0 -0.207641,-0.21501 -1.93422,-4.44299 -2.02309,-4.97205 -0.03829,-0.22761 0.03829,-0.49554 0,-0.72317 -0.08689,-0.51717 -0.410979,-0.70934 -0.559601,-1.16188 -0.470869,-1.43379 -1.76456,-3.76772 -2.025039,-5.35175 -0.188381,-1.14564 0.34153,-3.84812 0,-4.80931 -0.09269,-0.26084 -0.24305,-0.42002 -0.33115,-0.68764 -0.23811,-0.72326 0.134838,-4.29759 0,-5.38553 -0.07111,-0.57277 -0.157202,-3.72358 -0.186351,-3.81554 -0.111839,-0.35255 -0.272172,-1.12129 -0.46837,-1.32503 -0.0534,-0.0556 -0.152221,0.11057 -0.179464,0 -0.05319,-0.21611 0.0549,-0.51388 0,-0.72824 -0.02929,-0.11393 -0.134654,0.0716 -0.186392,0 -0.146371,-0.20259 -0.248711,-0.51641 -0.373061,-0.77461 -0.953961,-1.98079 -0.962709,-1.62202 -2.226211,-1.62202"
       id="path604-3"
       inkscape:transform-center-x="-0.041154138"
       inkscape:transform-center-y="-3.3560248"
       transform="translate(-40.121705,-14.933626)" /><path
       style="fill:url(#linearGradient272);fill-opacity:1;stroke:#000000;stroke-width:1.27765;stroke-dasharray:none;stroke-opacity:1"
       d="m 114.29719,150.77536 c -0.34019,2.56455 -1.11504,6.01856 -2.21926,7.54708 -0.089,0.12313 -0.61426,1.06191 -0.7245,1.13595 -0.24893,0.16716 -0.66418,0 -0.93158,0 -1.39577,0 -1.98963,-0.006 -3.09191,1.51953 -0.56646,0.78412 -0.94677,2.14151 -1.10512,3.45656 -0.0778,0.6455 0.11657,1.29103 0,1.93652 0.3945,1.73466 -0.54561,1.49113 -0.74611,2.32381 -0.30863,1.2816 -0.53296,2.93259 -0.74582,4.25883 -0.15761,0.98199 -0.54732,1.49874 -0.74599,2.32356 -0.0833,0.34621 0.0833,0.81501 0,1.16122 -0.25809,1.07211 -0.95743,1.74734 -1.30519,2.7101 -0.42019,1.16327 -0.43334,2.70413 -0.55959,3.09692 -0.0773,0.24011 -0.28966,0.1564 -0.37308,0.3873 -0.14224,0.39387 -1.18852,5.85265 -1.30572,6.58268 -0.3373,2.1011 -0.591696,4.4611 -0.932636,6.58333 -0.35745,2.22489 0.2606,7.3716 0,9.80659 -0.22252,2.0792 -0.68785,4.16376 -0.93265,6.19688 -0.0566,0.46982 -0.11465,6.10217 0,6.53423 0.10411,0.39212 0.33075,0.34323 0.49315,0.67411 1.211116,2.46719 3.822946,1.54849 5.477016,1.54849 0.32375,0 0.81755,-0.20477 1.11249,0 0.65354,0.45339 1.09355,1.04352 1.65692,1.92118 0.35686,0.55591 0.90853,0.49975 1.30457,0.77377 0.32561,0.2253 0.47225,0.97179 0.74545,1.16087 0.11793,0.0816 0.25508,-0.0816 0.37304,0 0.59418,0.41122 0.98652,1.62415 1.49088,2.32222 0.53013,0.73372 1.07336,1.12965 1.6781,1.54894 0.50079,0.3472 3.45571,0.28155 3.86147,0 1.1303,-0.78431 2.29591,-1.7981 3.54278,-2.32329 1.67225,-0.70434 4.43089,0.38732 6.16619,0.38732 0.30006,0 1.4343,0.33611 1.67721,0 0.28697,-0.3971 0.44358,-1.12518 0.73167,-1.51877 0.49262,-0.673 1.15803,-1.51288 1.67878,-2.32384 0.14074,-0.21909 0.20978,-0.63898 0.37307,-0.77462 0.17317,-0.14389 0.39959,0.19925 0.55952,0 0.1922,-0.23944 0.21452,-0.8326 0.37301,-1.16164 0.0661,-0.95223 0.39599,-0.1605 0.55946,-0.38732 0.31278,-0.4337 0.58841,-1.1911 0.9305,-1.54736 0.0884,-0.092 0.42803,0.14841 0.49443,0 0.0861,-0.19248 0.0803,-0.51914 0.16971,-0.70478 0.027,-0.0562 0.89805,-0.37114 0.94361,-0.26861 0.07,0.15784 0.0915,0.48128 0.16476,0.62061 0.13484,0.25664 4.97972,-0.0873 5.08371,-0.37276 0.24629,-0.67614 0.41757,-1.47121 0.54775,-2.27469 0.0681,-0.4194 0.12326,-7.1052 0,-7.87139 -0.12977,-0.80673 -0.5967,-1.81013 -0.91999,-2.29703 -1.31339,-1.97807 -1.83972,-2.40234 -2.64825,-5.49744 -0.24964,-0.95561 -0.40776,-0.93783 -0.55926,-1.86985 -0.17963,-1.105 0.35928,0.71857 0,-1.11867 -0.11702,-0.59809 -0.46122,-0.93689 -0.5596,-1.54923 -0.0591,-0.36697 0.0835,-0.81465 0,-1.16056 -0.10011,-0.41522 -0.28851,-0.72824 -0.37273,-1.15848 -0.0162,-0.0822 -0.11567,-3.49651 -0.18651,-4.23121 -0.10442,-1.08385 0.25984,-7.20301 0,-7.92372 -0.14253,-0.39529 -0.56779,-0.39754 -0.73524,-0.62934 -0.21668,-0.29993 -0.30476,-0.97998 -0.55243,-1.14704 -0.11821,-0.0797 -0.26186,0.11551 -0.37307,0 -0.37404,-0.38833 -0.56142,-1.53547 -0.93267,-1.93654 -0.23212,-0.2508 -0.64807,0.24281 -0.88254,0 -0.20764,-0.21501 -1.93422,-4.44299 -2.02309,-4.97205 -0.0383,-0.22761 0.0383,-0.49555 0,-0.72317 -0.0869,-0.51717 -0.41098,-0.70935 -0.5596,-1.16188 -0.47087,-1.43379 -1.76456,-3.76772 -2.02504,-5.35176 -0.18838,-1.14563 0.34153,-3.84811 0,-4.8093 -0.0927,-0.26084 -0.24305,-0.42003 -0.33115,-0.68764 -0.23811,-0.72326 0.13484,-4.29759 0,-5.38553 -0.0711,-0.57277 -0.1572,-3.72358 -0.18635,-3.81554 -0.11184,-0.35256 -0.27217,-1.12129 -0.46837,-1.32503 -0.0534,-0.0556 -0.15222,0.11057 -0.17947,0 -0.0532,-0.21611 0.0549,-0.51389 0,-0.72825 -0.0293,-0.11393 -0.13465,0.0716 -0.18639,0 -0.14638,-0.20259 -0.24871,-0.51641 -0.37306,-0.77461 -0.95396,-1.98078 -0.96271,-1.62201 -2.22621,-1.62201"
       id="path604-3-7"
       inkscape:transform-center-x="-0.041154138"
       inkscape:transform-center-y="-3.3560248"
       transform="translate(-40.121705,-14.933626)" /></g><g
     id="layer1"
     transform="translate(-40.121706,-14.933626)"><rect
       id="shape2"
       fill="#fb3b02"
       fill-rule="evenodd"
       stroke="#000000"
       stroke-width="1.22007"
       stroke-linecap="square"
       stroke-linejoin="bevel"
       width="19.678471"
       height="42.308712"
       x="116.0065"
       y="54.437607" /><ellipse
       id="shape3"
       transform="rotate(-6.4708416)"
       rx="20.908375"
       ry="28.287802"
       cx="114.49888"
       cy="69.671646"
       fill="#fb3b02"
       fill-rule="evenodd"
       stroke="#000000"
       stroke-width="1.22007"
       stroke-linecap="square"
       stroke-linejoin="bevel" /><path
       id="shape4"
       fill="#fb3b02"
       fill-rule="evenodd"
       stroke="#000000"
       stroke-width="1.22007"
       stroke-linecap="square"
       stroke-linejoin="bevel"
       d="m 40.719234,156.08299 42.787965,-2.78306 V 107.7291 l 16.349939,-0.34786 1.739292,45.22297 40.35275,0.69572 -9.39237,-45.57083 h -7.65308 L 117.25045,15.543661 H 64.026538 l -9.044656,86.912629 -4.174439,4.57709 z" /><ellipse
       id="shape5"
       rx="23.500429"
       ry="12.41532"
       cx="89.284401"
       cy="37.964127"
       fill="#77b3fe"
       fill-rule="evenodd"
       stroke="#000000"
       stroke-width="1.22007"
       stroke-linecap="square"
       stroke-linejoin="bevel" /><text
       id="shape6"
       krita:useRichText="false"
       krita:textVersion="2"
       fill="#000000"
       stroke-opacity="0"
       stroke="#000000"
       stroke-width="0"
       stroke-linecap="square"
       stroke-linejoin="bevel"
       font-size="8.19936px"
       font-size-adjust="0.466667"
       x="107.21702"
       y="146.51506"><tspan
         id="tspan273"
         style="stroke-width:0"><tspan
           x="107.21702"
           font-family="'Nimbus Sans [UKWN]'"
           font-stretch="normal"
           kerning="0"
           letter-spacing="0"
           word-spacing="0"
           id="tspan269"
           style="stroke-width:0">s</tspan><tspan
           id="tspan271"
           style="stroke-width:0">μs-25</tspan></tspan></text><text
       id="shape7"
       krita:useRichText="true"
       krita:textVersion="2"
       fill="#000000"
       stroke-opacity="0"
       stroke="#000000"
       stroke-width="0"
       stroke-linecap="square"
       stroke-linejoin="bevel"
       font-family="'URW Bookman'"
       font-size="12.299px"
       font-size-adjust="0.472426"
       font-stretch="normal"
       font-style="italic"
       font-weight="300"
       letter-spacing="0"
       word-spacing="0"
       style="font-style:normal;font-variant:normal;font-weight:600;font-stretch:normal;font-family:'URW Bookman';-inkscape-font-specification:'URW Bookman Semi-Bold'"
       x="71.166801"
       y="41.109684"><tspan
         x="71.166801"
         id="tspan276"
         style="font-style:normal;font-variant:normal;font-weight:600;font-stretch:normal;font-family:'URW Bookman';-inkscape-font-specification:'URW Bookman Semi-Bold';stroke-width:0">NASA</tspan></text></g></svg>
