<?xml version="1.0" encoding="UTF-8" standalone="no"?>
<!-- Created with Inkscape (http://www.inkscape.org/) -->

<svg
   width="111.0495mm"
   height="216.42628mm"
   viewBox="0 0 111.04949 216.42629"
   version="1.1"
   id="svg5"
   xml:space="preserve"
   inkscape:export-filename="sus-25-flame"
   inkscape:export-xdpi="96"
   inkscape:export-ydpi="96"
   xmlns:inkscape="http://www.inkscape.org/namespaces/inkscape"
   xmlns:sodipodi="http://sodipodi.sourceforge.net/DTD/sodipodi-0.dtd"
   xmlns:xlink="http://www.w3.org/1999/xlink"
   xmlns="http://www.w3.org/2000/svg"
   xmlns:svg="http://www.w3.org/2000/svg"
   xmlns:krita="http://krita.org/namespaces/svg/krita"><sodipodi:namedview
     id="namedview7"
     pagecolor="#ffffff"
     bordercolor="#000000"
     borderopacity="0.25"
     inkscape:showpageshadow="2"
     inkscape:pageopacity="0.0"
     inkscape:pagecheckerboard="0"
     inkscape:deskcolor="#d1d1d1"
     inkscape:document-units="mm"
     showgrid="false"
     showguides="false" /><defs
     id="defs2"><linearGradient
       inkscape:collect="always"
       id="linearGradient1610"><stop
         style="stop-color:#d44444;stop-opacity:1;"
         offset="0"
         id="stop1606" /><stop
         style="stop-color:#ead500;stop-opacity:1;"
         offset="1"
         id="stop1608" /></linearGradient><linearGradient
       inkscape:collect="always"
       id="linearGradient1355"><stop
         style="stop-color:#d64242;stop-opacity:1;"
         offset="0"
         id="stop1351" /><stop
         style="stop-color:#ead500;stop-opacity:1;"
         offset="1"
         id="stop1353" /></linearGradient><linearGradient
       inkscape:collect="always"
       xlink:href="#linearGradient1355"
       id="linearGradient1567"
       gradientUnits="userSpaceOnUse"
       gradientTransform="matrix(1.7632307,0,0,2.0525362,86.818051,-2.0601355)"
       x1="126.23866"
       y1="123.93571"
       x2="126.67377"
       y2="83.472176" /><linearGradient
       inkscape:collect="always"
       xlink:href="#linearGradient1610"
       id="linearGradient1603"
       gradientUnits="userSpaceOnUse"
       gradientTransform="matrix(1.7632307,0,0,2.0525362,33.832998,0.50095801)"
       x1="126.23866"
       y1="123.93571"
       x2="126.67377"
       y2="83.472176" /></defs><g
     inkscape:label="Layer 1"
     inkscape:groupmode="layer"
     id="layer1"
     transform="translate(-187.05928,-38.378189)"><g
       inkscape:groupmode="layer"
       id="layer3"
       inkscape:label="Layer 2"><g
         id="g1628"
         transform="translate(-42.388745,9.483414e-4)"><path
           style="fill:url(#linearGradient1567);fill-opacity:1;stroke:#000000;stroke-width:1.3921;stroke-dasharray:none;stroke-opacity:1"
           d="m 302.70104,173.90693 c -0.40443,2.56099 -1.32558,6.01022 -2.6383,7.53662 -0.10579,0.12298 -0.73024,1.06044 -0.86129,1.13438 -0.29592,0.16694 -0.78959,0 -1.10748,0 -1.65931,0 -2.36529,-0.006 -3.67569,1.51742 -0.67343,0.78304 -1.12555,2.13855 -1.31379,3.45178 -0.0924,0.64461 0.13859,1.28924 0,1.93384 0.46898,1.73226 -0.64863,1.48906 -0.88699,2.3206 -0.3669,1.27982 -0.63359,2.92852 -0.88664,4.25293 -0.18738,0.98062 -0.65067,1.49666 -0.88684,2.32034 -0.0991,0.34573 0.0991,0.81387 0,1.15961 -0.30682,1.07063 -1.13821,1.74492 -1.55164,2.70634 -0.49952,1.16167 -0.51515,2.7004 -0.66525,3.09264 -0.0919,0.23978 -0.34434,0.1562 -0.44351,0.38676 -0.16909,0.39333 -1.41293,5.84455 -1.55226,6.57357 -0.40099,2.09819 -0.70342,4.45493 -1.10873,6.57422 -0.42494,2.2218 0.3098,7.36139 0,9.79302 -0.26454,2.07632 -0.81773,4.15801 -1.10876,6.18829 -0.0672,0.46917 -0.13629,6.0937 0,6.52517 0.12378,0.39157 0.39321,0.34276 0.58627,0.67318 1.43979,2.46378 4.54477,1.54634 6.51116,1.54634 0.38488,0 0.97191,-0.20443 1.32255,0 0.77693,0.45276 1.30002,1.04207 1.96976,1.91851 0.42425,0.55517 1.08008,0.49906 1.55089,0.77271 0.38709,0.22498 0.56142,0.97044 0.8862,1.15926 0.14019,0.0815 0.30325,-0.0815 0.44349,0 0.70636,0.41066 1.17278,1.62191 1.77237,2.31901 0.63023,0.73271 1.27603,1.12809 1.99495,1.54679 0.59534,0.34672 4.10819,0.28116 4.59056,0 1.34372,-0.78323 2.72942,-1.7956 4.21172,-2.32006 1.98799,-0.70339 5.2675,0.38678 7.33044,0.38678 0.35673,0 1.70512,0.33565 1.9939,0 0.34115,-0.39655 0.52734,-1.12362 0.86982,-1.51668 0.58563,-0.67206 1.37668,-1.51079 1.99576,-2.32062 0.16733,-0.21878 0.24939,-0.63809 0.44351,-0.77354 0.20587,-0.14368 0.47504,0.19889 0.66517,0 0.22849,-0.2391 0.25502,-0.83144 0.44344,-1.16004 0.0786,-0.95091 0.47075,-0.1603 0.66509,-0.38677 0.37184,-0.43312 0.69951,-1.18947 1.10619,-1.54523 0.10509,-0.0919 0.50885,0.14819 0.58778,0 0.10244,-0.19212 0.0954,-0.51841 0.20176,-0.7038 0.0321,-0.0561 1.06762,-0.37062 1.12178,-0.26824 0.0832,0.15763 0.10879,0.48062 0.19588,0.61976 0.16028,0.25626 5.91996,-0.0872 6.04358,-0.37226 0.2928,-0.67519 0.49642,-1.46917 0.65117,-2.27151 0.0809,-0.41882 0.14654,-7.09537 0,-7.86049 -0.15428,-0.80563 -0.70936,-1.80763 -1.09369,-2.29385 -1.56138,-1.97533 -2.18709,-2.39903 -3.14828,-5.48984 -0.29677,-0.95429 -0.48475,-0.93653 -0.66485,-1.86726 -0.21354,-1.10348 0.42711,0.71757 0,-1.11713 -0.13912,-0.59725 -0.54831,-0.93559 -0.66526,-1.54708 -0.0702,-0.36646 0.0993,-0.81352 0,-1.15895 -0.11903,-0.41465 -0.34299,-0.72723 -0.44311,-1.15687 -0.0192,-0.0821 -0.13752,-3.49167 -0.22172,-4.22536 -0.12413,-1.08235 0.30889,-7.19304 0,-7.91274 -0.16944,-0.39475 -0.67501,-0.397 -0.87408,-0.62848 -0.25759,-0.29952 -0.3623,-0.97862 -0.65673,-1.14545 -0.14054,-0.0796 -0.31129,0.11535 -0.44351,0 -0.44466,-0.38779 -0.66742,-1.53334 -1.10876,-1.93386 -0.27596,-0.25045 -0.77044,0.24247 -1.04918,0 -0.24685,-0.21471 -2.29944,-4.43684 -2.40509,-4.96516 -0.0455,-0.2273 0.0455,-0.49487 0,-0.72217 -0.10333,-0.51645 -0.48857,-0.70837 -0.66526,-1.16027 -0.55977,-1.43181 -2.09772,-3.76251 -2.40739,-5.34436 -0.22396,-1.14404 0.40601,-3.84277 0,-4.80264 -0.1102,-0.26048 -0.28895,-0.41944 -0.39367,-0.68668 -0.28307,-0.72226 0.16028,-4.29165 0,-5.37808 -0.0845,-0.57198 -0.18689,-3.71843 -0.22155,-3.81026 -0.13294,-0.35206 -0.32355,-1.11973 -0.5568,-1.32319 -0.0635,-0.0555 -0.18095,0.11042 -0.21335,0 -0.0633,-0.21581 0.0653,-0.51318 0,-0.72724 -0.0348,-0.11378 -0.1601,0.0715 -0.22158,0 -0.17403,-0.2023 -0.29568,-0.51569 -0.44351,-0.77354 -1.13409,-1.97804 -1.14448,-1.61977 -2.64656,-1.61977"
           id="path604-3"
           inkscape:transform-center-x="-0.048923442"
           inkscape:transform-center-y="-3.3513809" /><path
           style="fill:url(#linearGradient1603);fill-opacity:1;stroke:#000000;stroke-width:1.3921;stroke-dasharray:none;stroke-opacity:1"
           d="m 249.71602,176.46803 c -0.40443,2.56099 -1.32558,6.01022 -2.6383,7.53662 -0.10579,0.12298 -0.73024,1.06044 -0.86129,1.13438 -0.29592,0.16694 -0.78959,0 -1.10748,0 -1.65931,0 -2.36529,-0.006 -3.67569,1.51742 -0.67343,0.78304 -1.12555,2.13855 -1.31379,3.45178 -0.0924,0.64461 0.13859,1.28924 0,1.93384 0.46898,1.73226 -0.64863,1.48906 -0.88699,2.3206 -0.3669,1.27982 -0.63359,2.92852 -0.88664,4.25293 -0.18738,0.98062 -0.65067,1.49666 -0.88684,2.32034 -0.0991,0.34573 0.0991,0.81387 0,1.15961 -0.30682,1.07063 -1.13821,1.74492 -1.55164,2.70634 -0.49952,1.16167 -0.51515,2.7004 -0.66525,3.09264 -0.0919,0.23978 -0.34434,0.1562 -0.44351,0.38676 -0.16909,0.39333 -1.41293,5.84455 -1.55226,6.57357 -0.40099,2.09819 -0.70342,4.45493 -1.10873,6.57422 -0.42494,2.2218 0.3098,7.36139 0,9.79302 -0.26454,2.07632 -0.81773,4.15801 -1.10876,6.18829 -0.0672,0.46917 -0.13629,6.0937 0,6.52517 0.12378,0.39157 0.39321,0.34276 0.58627,0.67318 1.43979,2.46378 4.54477,1.54634 6.51116,1.54634 0.38488,0 0.97191,-0.20443 1.32255,0 0.77693,0.45276 1.30002,1.04207 1.96976,1.91851 0.42425,0.55517 1.08008,0.49906 1.55089,0.77271 0.38709,0.22498 0.56142,0.97044 0.8862,1.15926 0.14019,0.0815 0.30325,-0.0815 0.44349,0 0.70636,0.41066 1.17278,1.62191 1.77237,2.31901 0.63023,0.73271 1.27603,1.12809 1.99495,1.54679 0.59534,0.34672 4.10819,0.28116 4.59056,0 1.34372,-0.78323 2.72942,-1.7956 4.21172,-2.32006 1.98799,-0.70339 5.2675,0.38678 7.33044,0.38678 0.35673,0 1.70512,0.33565 1.9939,0 0.34115,-0.39655 0.52734,-1.12362 0.86982,-1.51668 0.58563,-0.67206 1.37668,-1.51079 1.99576,-2.32062 0.16733,-0.21878 0.24939,-0.63809 0.44351,-0.77354 0.20587,-0.14368 0.47504,0.19889 0.66517,0 0.22849,-0.2391 0.25502,-0.83144 0.44344,-1.16004 0.0786,-0.95091 0.47075,-0.1603 0.66509,-0.38677 0.37184,-0.43312 0.69951,-1.18947 1.10619,-1.54523 0.10509,-0.0919 0.50885,0.14819 0.58778,0 0.10244,-0.19212 0.0954,-0.51841 0.20176,-0.7038 0.0321,-0.0561 1.06762,-0.37062 1.12178,-0.26824 0.0832,0.15763 0.10879,0.48062 0.19588,0.61976 0.16028,0.25626 5.91996,-0.0872 6.04358,-0.37226 0.2928,-0.67519 0.49642,-1.46917 0.65117,-2.27151 0.0809,-0.41882 0.14654,-7.09537 0,-7.86049 -0.15428,-0.80563 -0.70936,-1.80763 -1.09369,-2.29385 -1.56138,-1.97533 -2.18709,-2.39903 -3.14828,-5.48984 -0.29677,-0.95429 -0.48475,-0.93653 -0.66485,-1.86726 -0.21354,-1.10348 0.42711,0.71757 0,-1.11713 -0.13912,-0.59725 -0.54831,-0.93559 -0.66526,-1.54708 -0.0702,-0.36646 0.0993,-0.81352 0,-1.15895 -0.11903,-0.41465 -0.34299,-0.72723 -0.44311,-1.15687 -0.0192,-0.0821 -0.13752,-3.49167 -0.22172,-4.22536 -0.12413,-1.08235 0.30889,-7.19304 0,-7.91274 -0.16944,-0.39475 -0.67501,-0.397 -0.87408,-0.62848 -0.25759,-0.29952 -0.3623,-0.97862 -0.65673,-1.14545 -0.14054,-0.0796 -0.31129,0.11535 -0.44351,0 -0.44466,-0.38779 -0.66742,-1.53334 -1.10876,-1.93386 -0.27596,-0.25045 -0.77044,0.24247 -1.04918,0 -0.24685,-0.21471 -2.29944,-4.43684 -2.40509,-4.96516 -0.0455,-0.2273 0.0455,-0.49487 0,-0.72217 -0.10333,-0.51645 -0.48857,-0.70837 -0.66526,-1.16027 -0.55977,-1.43181 -2.09772,-3.76251 -2.40739,-5.34436 -0.22396,-1.14404 0.40601,-3.84277 0,-4.80264 -0.1102,-0.26048 -0.28895,-0.41944 -0.39367,-0.68668 -0.28307,-0.72226 0.16028,-4.29165 0,-5.37808 -0.0845,-0.57198 -0.18689,-3.71843 -0.22155,-3.81026 -0.13294,-0.35206 -0.32355,-1.11973 -0.5568,-1.32319 -0.0635,-0.0555 -0.18095,0.11042 -0.21335,0 -0.0633,-0.21581 0.0653,-0.51318 0,-0.72724 -0.0348,-0.11378 -0.1601,0.0715 -0.22158,0 -0.17403,-0.2023 -0.29568,-0.51569 -0.44351,-0.77354 -1.13409,-1.97804 -1.14448,-1.61977 -2.64656,-1.61977"
           id="path604-3-2"
           inkscape:transform-center-x="-0.048923442"
           inkscape:transform-center-y="-3.3513809" /><g
           id="g518"
           transform="matrix(2.0498407,0,0,2.0498407,182.26821,22.985276)"><rect
             id="shape0"
             transform="translate(67.68,31.68)"
             fill="none"
             stroke="#ffffff"
             stroke-width="0.5952"
             stroke-linecap="square"
             stroke-linejoin="bevel"
             width="5.7600002"
             height="11.52"
             x="0"
             y="0" /><rect
             id="shape2"
             transform="translate(60.036182,26.780589)"
             fill="#fb3b02"
             fill-rule="evenodd"
             stroke="#000000"
             stroke-width="0.5952"
             stroke-linecap="square"
             stroke-linejoin="bevel"
             width="9.6000004"
             height="20.639999"
             x="0"
             y="0" /><ellipse
             id="shape3"
             transform="rotate(-6.4708416,159.44147,-444.28037)"
             rx="10.2"
             ry="13.8"
             cx="10.2"
             cy="13.8"
             fill="#fb3b02"
             fill-rule="evenodd"
             stroke="#000000"
             stroke-width="0.5952"
             stroke-linecap="square"
             stroke-linejoin="bevel" /><path
             id="shape4"
             fill="#fb3b02"
             fill-rule="evenodd"
             stroke="#000000"
             stroke-width="0.5952"
             stroke-linecap="square"
             stroke-linejoin="bevel"
             d="M 0,68.5611 20.8738,67.2034 V 44.972 L 28.85,44.8023 29.6985,66.864 49.3843,67.2034 44.8023,44.972 H 41.0688 L 37.3352,0 H 11.3703 L 6.95793,42.3997 4.92146,44.6326 Z"
             sodipodi:nodetypes="ccccccccccccc"
             transform="translate(23.307832,7.8064587)" /><ellipse
             id="shape5"
             transform="translate(35.535485,12.687397)"
             rx="11.464515"
             ry="6.0567245"
             cx="11.464515"
             cy="6.0567245"
             fill="#77b3fe"
             fill-rule="evenodd"
             stroke="#000000"
             stroke-width="0.5952"
             stroke-linecap="square"
             stroke-linejoin="bevel" /><text
             id="shape6"
             krita:useRichText="false"
             krita:textVersion="2"
             transform="translate(55.748297,71.699911)"
             fill="#000000"
             stroke-opacity="0"
             stroke="#000000"
             stroke-width="0"
             stroke-linecap="square"
             stroke-linejoin="bevel"
             font-size="4px"
             font-size-adjust="0.466667"><tspan
               id="tspan273"><tspan
                 x="0"
                 font-family="'Nimbus Sans [UKWN]'"
                 font-stretch="normal"
                 kerning="0"
                 letter-spacing="0"
                 word-spacing="0"
                 id="tspan269">s</tspan><tspan
                 id="tspan271">μs-25</tspan></tspan></text><text
             id="shape7"
             krita:useRichText="true"
             krita:textVersion="2"
             fill="#000000"
             stroke-opacity="0"
             stroke="#000000"
             stroke-width="0"
             stroke-linecap="square"
             stroke-linejoin="bevel"
             font-family="'URW Bookman'"
             font-size="6px"
             font-size-adjust="0.472426"
             font-stretch="normal"
             font-style="italic"
             font-weight="300"
             letter-spacing="0"
             word-spacing="0"
             style="font-style:normal;font-variant:normal;font-weight:600;font-stretch:normal;font-family:'URW Bookman';-inkscape-font-specification:'URW Bookman Semi-Bold'"
             x="38.161457"
             y="20.278658"><tspan
               x="38.161457"
               id="tspan276"
               style="font-style:normal;font-variant:normal;font-weight:600;font-stretch:normal;font-family:'URW Bookman';-inkscape-font-specification:'URW Bookman Semi-Bold'">NASA</tspan></text></g></g></g></g></svg>
